<?xml version="1.0" encoding="utf-8"?>
<!-- Generator: Adobe Illustrator 22.1.0, SVG Export Plug-In . SVG Version: 6.00 Build 0)  -->
<svg version="1.1" id="Layer_1" xmlns="http://www.w3.org/2000/svg" xmlns:xlink="http://www.w3.org/1999/xlink" x="0px" y="0px"
	 viewBox="0 0 224 124" style="enable-background:new 0 0 224 124;" xml:space="preserve">
<style type="text/css">
	.st0{fill:none;}
	.st1{fill:#FECA00;}
	.st2{fill:#FEE275;}
	.st3{fill:#FFE582;}
	.st4{fill:#FEE480;}
	.st5{fill:#EDB51B;}
	.st6{fill:#FECC08;}
	.st7{fill:none;stroke:#FEE170;stroke-miterlimit:10;}
</style>
<rect class="st0" width="224" height="124"/>
<g id="Group_85" transform="translate(4 8)">
	<path id="Path_10" class="st1" d="M125.7,108H81.1c-8.4,0-15.3-6.9-15.3-15.3v-71c0-4.9,3.9-8.8,8.8-8.8h57.7
		c4.9,0,8.8,3.9,8.8,8.8v70.9C141,101.1,134.2,107.9,125.7,108z"/>
	<rect id="Rectangle_52" x="77.3" y="6" class="st1" width="52.2" height="7"/>
	<path id="Path_11" class="st2" d="M131.7,6.5H75c-0.9,0-1.6-0.7-1.6-1.6c0,0,0,0,0,0V1.6C73.4,0.7,74.1,0,75,0c0,0,0,0,0,0h56.7
		c0.9,0,1.6,0.7,1.6,1.6c0,0,0,0,0,0v3.2c0.1,0.9-0.6,1.6-1.5,1.7C131.8,6.5,131.7,6.5,131.7,6.5z"/>
	<rect id="Rectangle_53" x="156.4" y="72.6" class="st1" width="57.2" height="31"/>
	<rect id="Rectangle_54" x="156.4" y="84.5" class="st3" width="57.2" height="19"/>
	<path id="Path_12" class="st2" d="M214.7,72.6h-59.3c-0.5,0-0.9-0.4-0.9-0.9v-2.6c0-0.5,0.4-0.9,0.9-0.9h59.3
		c0.5,0,0.9,0.4,0.9,0.9v2.6C215.5,72.2,215.2,72.5,214.7,72.6z"/>
	<path id="Path_13" class="st1" d="M214.7,108h-59.3c-0.5,0-0.9-0.4-0.9-0.9v-2.6c0-0.5,0.4-0.9,0.9-0.9h59.3c0.5,0,0.9,0.4,0.9,0.9
		v2.6C215.5,107.6,215.2,107.9,214.7,108z"/>
	<rect id="Rectangle_55" x="1.6" y="42.1" class="st1" width="49.1" height="61.4"/>
	<rect id="Rectangle_56" x="1.6" y="59.4" class="st4" width="49.1" height="44.2"/>
	<path id="Path_14" class="st2" d="M51.5,42.1H0.8c-0.4,0-0.8-0.4-0.8-0.8v-2.8c0-0.4,0.4-0.8,0.8-0.8h50.7c0.4,0,0.8,0.4,0.8,0.8
		v2.8c0,0.4-0.3,0.8-0.7,0.8C51.6,42.1,51.5,42.1,51.5,42.1z"/>
	<path id="Path_15" class="st1" d="M51.5,108H0.8c-0.4,0-0.8-0.4-0.8-0.8v-2.8c0-0.4,0.4-0.8,0.8-0.8h50.7c0.4,0,0.8,0.4,0.8,0.8
		v2.8C52.3,107.6,52,108,51.5,108C51.5,108,51.5,108,51.5,108z"/>
	<path id="Path_16" class="st5" d="M65.8,45.5c0,0,27.9,19.4,47.9,15s27.4-7.1,27.4-7.1v39.2c0,8.5-6.9,15.4-15.4,15.4H81.2
		c-8.5,0-15.4-6.9-15.4-15.4V45.5z"/>
	<g id="Group_66">
		<path id="Path_17" class="st2" d="M133.3,88l-7.4,0.4h-7.5l-7.5,0.3l-7.5-0.5l-7.5,0.3l-7.5-0.3l-7.5,0.4L73,88.5l0.4-7.8
			l-0.5-7.4l0.5-7.4l-0.3-7.4L73,51.1l0.8-7.4v-7.4L73.5,29l7.4-0.2l7.5-0.3l7.5,0.1l7.5,0.4l7.5-0.3l7.5-0.3l7.5,1l7.5-0.5l0.1,7.4
			l-0.4,7.4l0.6,7.4l-0.6,7.4l-0.3,7.4l1.1,7.4l-0.1,7.4L133.3,88z"/>
	</g>
	<g id="Group_67">
		<path id="Path_18" class="st6" d="M112.5,63l12.8-3.9l-13.4-3.7l6.5-11.8l-11.6,6.2L103,37l-3.8,12.8l-11.7-6.3l6.9,12l-14,3.6
			l14,3.5L87,75.1L99.3,68l3.7,13.1l4.1-12.1l12.3,6.5L112.5,63z"/>
	</g>
	<path id="Path_19" class="st1" d="M40.2,91l-0.9-1.8l1-1.9l-1-2l1-1.9l-1-1.9l1-2l-1-1.9l1-2l-1-1.9l0.9-1.7l-4.6-4.6l-1.7,1
		L32,67.3l-2,1.1l-1.9-1.1l-1.9,1.1l-2-1.1l-1.9,1.1l-2-1.1l-1.9,1.1l-1.8-1l-4.5,4.5l1,1.8l-1.1,2l1.1,1.9L12,79.5l1.1,2L12,83.4
		l1.1,2L12,87.3l1.1,1.9l-1,1.8l4.5,4.5l1.8-0.9l2,1l1.9-1l1.9,1l2-1l1.9,1l2-1l1.9,1l1.9-1l1.8,0.9L40.2,91z"/>
	<g id="Group_68">
		<path id="Path_20" class="st1" d="M193.5,93.8c-7.5,4.1-16.7,4.1-24.2,0C176.8,89.7,186,89.7,193.5,93.8z"/>
		<path id="Path_21" class="st1" d="M192.7,93.8l6.6,2.6v-5.2L192.7,93.8z"/>
	</g>
	<g id="Group_69">
		<path id="Path_22" class="st7" d="M34.4,91.3l-8.2,0.3l-8.3,0.1l-2.2-2l0.5-8.2l-0.3-8.3l2-1.7l8.3-0.4l8.2-0.1l1.7,2.2l0.5,8.3
			l-0.5,8.2L34.4,91.3z"/>
	</g>
</g>
</svg>
