<?xml version="1.0" encoding="utf-8"?>
<!-- Generator: Adobe Illustrator 22.1.0, SVG Export Plug-In . SVG Version: 6.00 Build 0)  -->
<svg version="1.1" id="Layer_1" xmlns="http://www.w3.org/2000/svg" xmlns:xlink="http://www.w3.org/1999/xlink" x="0px" y="0px"
	 viewBox="0 0 110 136" style="enable-background:new 0 0 110 136;" xml:space="preserve">
<style type="text/css">
	.st0{fill:none;}
	.st1{fill:#50BF77;}
	.st2{fill:#A7DFBB;}
	.st3{fill:none;stroke:#96D9AD;stroke-width:3;stroke-miterlimit:10;}
	.st4{fill:#43AA62;}
	.st5{fill:#C3E9D1;}
</style>
<rect x="110" y="-174.2" class="st0" width="110" height="136"/>
<g id="Group_86" transform="translate(8 9)">
	<path id="Path_23" class="st1" d="M87.2,117.9H6.8c-3.8,0-6.8-3-6.8-6.8V9.7c0-3.8,3-6.8,6.8-6.8h80.3c3.8,0,6.8,3,6.8,6.8v101.4
		c0.1,3.7-2.8,6.7-6.5,6.8C87.4,117.9,87.3,117.9,87.2,117.9z"/>
	<circle id="Ellipse_7" class="st2" cx="13.7" cy="27.2" r="3"/>
	<line id="Line_29" class="st3" x1="22.4" y1="27.2" x2="82.5" y2="27.2"/>
	<circle id="Ellipse_8" class="st2" cx="13.7" cy="44.9" r="3"/>
	<line id="Line_30" class="st3" x1="22.4" y1="44.9" x2="82.5" y2="44.9"/>
	<circle id="Ellipse_9" class="st2" cx="13.7" cy="62.6" r="3"/>
	<line id="Line_31" class="st3" x1="22.4" y1="62.6" x2="82.5" y2="62.6"/>
	<circle id="Ellipse_10" class="st2" cx="13.7" cy="80.3" r="3"/>
	<line id="Line_32" class="st3" x1="22.4" y1="80.3" x2="82.5" y2="80.3"/>
	<g id="Group_72">
		<circle id="Ellipse_11" class="st4" cx="10.3" cy="7.4" r="1.9"/>
		<circle id="Ellipse_12" class="st4" cx="17.6" cy="7.4" r="1.9"/>
		<circle id="Ellipse_13" class="st4" cx="25" cy="7.4" r="1.9"/>
		<circle id="Ellipse_14" class="st4" cx="32.3" cy="7.4" r="1.9"/>
		<circle id="Ellipse_15" class="st4" cx="39.7" cy="7.4" r="1.9"/>
		<circle id="Ellipse_16" class="st4" cx="47" cy="7.4" r="1.9"/>
		<circle id="Ellipse_17" class="st4" cx="54.3" cy="7.4" r="1.9"/>
		<circle id="Ellipse_18" class="st4" cx="61.7" cy="7.4" r="1.9"/>
		<circle id="Ellipse_19" class="st4" cx="69" cy="7.4" r="1.9"/>
		<circle id="Ellipse_20" class="st4" cx="76.4" cy="7.4" r="1.9"/>
		<circle id="Ellipse_21" class="st4" cx="83.7" cy="7.4" r="1.9"/>
		<g id="Group_71">
			<rect id="Rectangle_57" x="9.2" y="0.1" class="st5" width="2.3" height="7.8"/>
			<rect id="Rectangle_58" x="16.5" y="0.1" class="st5" width="2.3" height="7.8"/>
			<rect id="Rectangle_59" x="23.9" y="0.1" class="st5" width="2.3" height="7.8"/>
			<rect id="Rectangle_60" x="31.2" y="0.1" class="st5" width="2.3" height="7.8"/>
			<rect id="Rectangle_61" x="38.5" y="0.1" class="st5" width="2.3" height="7.8"/>
			<rect id="Rectangle_62" x="45.9" y="0.1" class="st5" width="2.3" height="7.8"/>
			<rect id="Rectangle_63" x="53.2" y="0.1" class="st5" width="2.3" height="7.8"/>
			<rect id="Rectangle_64" x="60.6" y="0.1" class="st5" width="2.3" height="7.8"/>
			<rect id="Rectangle_65" x="67.9" y="0.1" class="st5" width="2.3" height="7.8"/>
			<rect id="Rectangle_66" x="75.2" y="0.1" class="st5" width="2.3" height="7.8"/>
			<rect id="Rectangle_67" x="82.6" y="0.1" class="st5" width="2.3" height="7.8"/>
		</g>
	</g>
</g>
</svg>
