<?xml version="1.0" encoding="utf-8"?>
<!-- Generator: Adobe Illustrator 22.1.0, SVG Export Plug-In . SVG Version: 6.00 Build 0)  -->
<svg version="1.1" id="Layer_1" xmlns="http://www.w3.org/2000/svg" xmlns:xlink="http://www.w3.org/1999/xlink" x="0px" y="0px"
	 viewBox="0 0 196 108" style="enable-background:new 0 0 196 108;" xml:space="preserve">
<style type="text/css">
	.st0{fill:none;}
	.st1{fill:#FEB4B4;}
	.st2{fill:#F9A3A3;}
	.st3{fill:none;stroke:#FBD6D6;stroke-width:2;stroke-miterlimit:10;}
</style>
<rect x="72" y="-215" class="st0" width="196" height="108"/>
<g id="Group_87" transform="translate(5 4)">
	<g id="Group_74">
		<path id="Path_24" class="st1" d="M130.3,95.6c4,0,7.3-3.3,7.3-7.3c0,0,0-0.1,0-0.1v-0.3l-1.2-38.4l5.4-3.2c2.8-1.7,4.4-4.7,4.3-8
			L145,7.4c0-1.6-1.3-2.8-2.9-2.8l0,0c-1.5,0-2.8,1.3-2.8,2.8c0,0,0,0,0,0l-0.8,19.3c0,1.2-0.9,2.2-2.1,2.4c-1.2,0.1-2.4-0.8-2.5-2
			v-0.2l-0.8-19.3c0-1.4-1-2.5-2.3-2.8c-0.4-0.1-0.8-0.1-1.2,0c-1.3,0.3-2.3,1.5-2.3,2.8l-0.7,19.2c0,1.2-1,2.2-2.2,2.2
			c-0.1,0-0.1,0-0.2,0H124c-1.2-0.2-2.1-1.2-2.1-2.4l-0.8-19.3c0-1.6-1.3-2.8-2.9-2.8l0,0c-1.6,0-2.9,1.2-2.9,2.8l-1,30.9
			c-0.1,3.3,1.5,6.3,4.3,8l5.5,3.3L122.9,88c-0.2,4,2.9,7.4,6.9,7.6c0.1,0,0.2,0,0.2,0L130.3,95.6z"/>
		<path id="Path_25" class="st1" d="M184,42.1L184,42.1c1.4-2.6,2.2-5.5,2.1-8.5c-0.1-9.8-1.8-28.9-15.9-29s-15.8,19.2-15.9,29
			c0,3,0.7,5.9,2.1,8.5l0,0c1.5,2.8,3.7,5.1,6.4,6.7l1.3,0.8l-1.2,38.3c-0.1,4,3,7.4,7,7.5c4,0.1,7.4-3,7.5-7v-0.5l-1.3-38.4
			l1.3-0.8C180.2,47.2,182.5,44.9,184,42.1z"/>
	</g>
	<circle id="Ellipse_22" class="st1" cx="50.1" cy="50" r="50.2"/>
	<path id="Path_26" class="st2" d="M72.8,16.2c13.5,18,9.8,43.5-8.2,57c-7,5.3-15.6,8.1-24.4,8.1c-8.1,0-15.9-2.4-22.6-6.9
		c7.6,10.3,19.7,16.4,32.5,16.4c22.5,0,40.8-18.2,40.8-40.7C90.9,36.5,84.1,23.8,72.8,16.2z"/>
	<circle id="Ellipse_23" class="st3" cx="50.1" cy="50" r="40.7"/>
</g>
</svg>
