<?xml version="1.0" encoding="utf-8"?>
<!-- Generator: Adobe Illustrator 22.1.0, SVG Export Plug-In . SVG Version: 6.00 Build 0)  -->
<svg version="1.1" id="Layer_1" xmlns="http://www.w3.org/2000/svg" xmlns:xlink="http://www.w3.org/1999/xlink" x="0px" y="0px"
	 viewBox="0 0 402.9 80" style="enable-background:new 0 0 402.9 80;" xml:space="preserve">
<style type="text/css">
	.st0{enable-background:new    ;}
	.st1{fill:#FFFFFF;}
</style>
<g id="Logo">
	<g class="st0">
		<path class="st1" d="M35.2,49.1c0.4,0,0.7,0.4,1.2,1.2c0.4,0.7,0.6,1.4,0.6,2.2c0,0.6-0.1,1.2-0.3,1.7c-0.1,0.6-0.3,1-0.4,1.3
			l-0.3,0.4c-2.3,4.6-5.9,8.8-10.6,12.7c-4.6,3.9-9.3,5.8-14,5.8c-2.5,0-4.3-0.9-5.5-2.6s-1.7-4-1.7-6.8c0-4.8,1.4-9.7,4.2-14.7
			s6.2-9.7,10.6-13.7c-1.9-0.1-3.5-0.9-5.1-2s-2.3-2.7-2.3-4.5c0-2.6,2.2-5.2,6.5-7.8s9.7-3.9,16-3.9c2,0,4.6,0.3,7.7,0.7
			c3.2,0.6,5.5,0.7,7.2,0.7c2.7,0,4.6-0.4,5.8-1.3c0.1,0,0.4,0,0.6,0c0.3,0,0.4,0.1,0.4,0.3s-0.1,0.4-0.3,0.7
			c-1,1.6-2.3,2.7-3.9,3.8c-1.6,1-3.5,1.4-5.5,1.4c-2.2,0-5.2-0.6-9.4-1.7c-4.2-1.2-7.4-1.7-9.5-1.7c-2.6,0-5.1,0.7-7.2,2.2
			c-2.3,1.4-3.5,3.5-3.5,5.9c0,1,0.3,2.2,0.9,3c0.6,1,1.2,1.7,1.7,2.3l0.9,0.7l0.1,0.1c5.6-5.3,10.7-8.5,15.2-9.5
			c0.3,0,0.6-0.1,0.9-0.1c0.4,0,0.7,0.1,0.7,0.4c0,0.4-0.4,0.7-1.2,1c-1.3,0.6-3.3,1.9-5.8,4.2c-2.5,2.2-5.2,4.9-8,8.2
			s-5.2,7.1-7.2,11.6s-3,8.8-3,13c0,4.3,1.4,6.5,4.3,6.5c2.2,0,4.2-0.7,6.2-2s3.9-3.2,5.5-5.3c1.6-2.2,2.9-4.5,4-6.8
			c1.2-2.3,2.2-4.5,2.9-6.9C34.6,49.3,34.7,49.1,35.2,49.1z"/>
		<path class="st1" d="M59.2,61.8c2-2,4.8-4.9,8-8.7c0.1-0.1,0.3-0.3,0.4-0.3c0.1,0,0.1,0.1,0.1,0.3c0,0.9-0.4,1.9-1.2,2.6
			c-3.6,3.9-6.7,7.2-9.4,10c-5.8,5.3-9.5,8-11.4,8c-0.7,0-1.2-0.4-1.2-1.4c0-1.7,1-4.3,2.9-8c2-3.6,3.9-6.8,5.9-10
			c1.9-3,2.9-4.9,2.9-5.3c0-0.3-0.1-0.4-0.4-0.4c-1.2,0-3.3,1.7-6.5,5.3c-3.2,3.6-5.9,6.8-8.1,9.7c-2.5,3-4.6,5.5-6.4,7.4
			c-1.9,1.9-3,2.9-3.6,3.2l-1,0.4c-0.4,0-0.6-0.3-0.6-0.7c0-0.7,0.4-2.2,1.3-4c0.9-2,1.7-3.8,2.6-5.3l1.3-2.5l11.3-20.2
			C55,26.1,62,15,67.1,8.3c1.4-1.9,2.5-2.9,3-2.9c0.3,0,0.4,0.1,0.4,0.6c0,1-0.7,3-2.3,6.2c-7.5,13.6-12.9,23.1-15.8,28.3
			c-1.7,3.2-3.5,6.1-4.9,8.5c-1.4,2.5-2.5,4.2-3,5.2c-0.6,1-1.2,1.9-1.6,2.6c-0.4,0.7-0.7,1.4-1,1.9c0,0.1,0,0.3,0,0.4
			c0,0.3,0,0.4,0.1,0.4s0.3-0.1,0.6-0.4c10.8-12,17.9-18.1,21.3-18.1c0.7,0,1,0.3,1,1c0,0.1-0.1,0.6-0.3,1.3s-0.7,2-1.6,3.9
			c-0.9,2-2.2,4.2-3.6,6.5c-0.9,1.3-2,3.3-3.5,5.8c-1.4,2.5-2.2,4.2-2.2,4.9c0,0.4,0.3,0.7,0.7,0.7c0.1,0,0.3,0,0.6-0.1
			c0.3-0.1,0.6-0.3,0.9-0.6c0.3-0.3,0.6-0.6,0.9-0.9c0.3-0.3,0.7-0.6,1.2-1C58.6,62.3,58.9,62,59.2,61.8z"/>
		<path class="st1" d="M76.9,64.7c2.6-2.3,6.2-6.2,11-11.7c0.1-0.1,0.3-0.3,0.4-0.3c0.1,0,0.1,0.1,0.1,0.3c0,0.9-0.4,1.9-1.2,2.6
			c-3.6,3.9-6.8,7.2-9.5,10c-2,2-4.5,3.9-7.2,5.8c-2.7,1.9-5.1,2.7-6.9,2.7c-2.2,0-3.3-1.6-3.3-4.6c0-5.1,1.9-10.4,5.6-16
			c3.8-5.6,8.1-9.4,13.2-11.3c2-0.9,3.9-1.3,5.6-1.3c1.9,0,2.7,0.7,2.7,2.2c0,2.7-2,6.1-5.9,9.7c-3.9,3.6-8.4,6.4-13.3,8.2
			c-0.1,0-0.4,0.1-0.6,0.4c-0.7,2-1.2,3.8-1.2,5.3c0,1.7,0.7,2.6,2,2.6C70.9,69.5,73.5,67.9,76.9,64.7z M80.1,48.1
			c0.6-1.2,0.9-2.3,0.9-3.2c0-0.7-0.3-1.2-0.7-1.2c-0.3,0-0.6,0.1-1,0.3c-0.4,0.1-0.6,0.3-0.9,0.6L78,44.9c-1.4,1.3-3.3,3.6-5.6,7.1
			C70,55.5,69,57.6,69,58.7c0,0.1,0,0.3,0.1,0.3c0.3,0,0.9-0.3,1.9-0.7c1-0.4,2.5-1.6,4.2-3.3C77.4,53,79,50.8,80.1,48.1z"/>
	</g>
	<g class="st0">
		<path class="st1" d="M106.6,71.5c0-2,3-0.9,3-6.4V29c0-5.2-3.3-3.8-3.3-5.8c0-1.4,1.3-1.3,3.9-1.3h24.1c9.1,0,17.2,4.2,17.2,16.5
			c0,10.6-5.8,17.5-18.2,17.5h-13c-2.2,0-2.2,0.3-2.2,1.4v7.4c0,5.6,3,5.1,3,6.8c0,1.2-1.2,1.2-2.7,1.2h-8.5
			C108,72.7,106.6,72.7,106.6,71.5z M132.9,47.8c7.1,0,10.3-3.3,10.3-9.3c0-6.1-4.5-8.7-10.7-8.7h-12c-2.3,0-2.3,0-2.3,3.3v12.4
			c0,1.3-0.1,2.2,1.3,2.2H132.9z"/>
		<path class="st1" d="M152.1,71.2c0-1.9,2.5-1.2,3.6-4.3l13.7-39.6c0.9-2.6-1-2.6-1-3.9c0-1,0.7-1.4,1.7-1.4h10.7
			c1.2,0,1.9,0.4,1.9,1.4c0,1.6-2.3,1.4-1.4,3.9l15.5,40c1.2,2.9,3.2,2.3,3.2,4c0,1.3-0.7,1.4-2.7,1.4h-8.7c-1.6,0-2.3-0.1-2.3-1.2
			c0-2.2,2.6-1.3,1.6-3.8l-1.3-3.6c-0.4-1-1-1.2-1.9-1.2h-17.5c-0.7,0-1.6,0.1-1.9,1l-0.7,2.6c-1.2,4.2,1.2,2.5,1.2,4.9
			c0,1.2-1.2,1.2-3.2,1.2h-8.2C153.1,72.7,152.1,72.4,152.1,71.2z M182.3,55.8c0.9,0,1-0.9,0.7-1.6l-7.2-20c-0.3-0.7-1-0.7-1.2,0
			l-6.9,20.2c-0.3,0.9,0.1,1.3,1,1.3H182.3z"/>
		<path class="st1" d="M203.5,71.7c0-1.9,2.9-0.9,2.7-5.3v-38c-0.1-4.3-2.6-3.6-2.6-5.1c0-1,1-1.2,3.3-1.2h5.2c1.3,0,2,0.6,2,1.9V29
			c0,1.3,0.4,1.7,1.4,2.6l25.9,22.3c1,0.9,1.9,0.7,1.9-1V29.4c0-5.8-2.6-4.3-2.6-6.2c0-1.2,1.2-1.2,4.3-1.2h4.9c2.6,0,4,0.1,4,1.4
			c0,1.9-2.6,0.4-2.6,5.5v38.2c0,2.7,2.3,2.3,2.3,4.3c0,1.2-1.3,1.2-2.2,1.2h-6.8c-1,0-1.3-0.7-1.3-1.7V67c0-0.7-0.6-1.9-1.6-2.9
			l-25.3-21.5c-1.3-1.2-2.2-0.7-2.2,1v22.7c0,4.5,3,3.2,3,5.2c0,1.2-0.9,1-2.6,1h-8.5C204.8,72.7,203.5,72.7,203.5,71.7z"/>
		<path class="st1" d="M275.2,71.5c0-1.3,2.6-1.4,2.6-4l0.1-36.4c0-1.3-0.3-2-2-2l-9.4-0.1c-4.2,0-3.3,2-4.8,2
			c-0.9,0-1.3-0.6-1.3-2.7v-4.6c0-1.2,0.6-1.6,1.9-1.6H301c1,0,1.7,0.4,1.7,1.4v4c0,2.7-0.4,3.6-1.4,3.6c-1.4,0-0.7-2.2-3.6-2.2
			h-9.3c-1.3,0-1.9,0.6-1.9,1.9v36.6c0,2.7,2.5,2.5,2.5,3.8c0,1.2-0.6,1.3-1.7,1.3H277C275.9,72.7,275.2,72.4,275.2,71.5z"/>
		<path class="st1" d="M307.1,71.7c0-1.6,2.7-1.7,2.7-4.6V28.7c0-4.8-2.7-3.6-2.7-5.5c0-0.9,1-1.2,4-1.2h22
			c9.4,0,18.1,5.1,18.1,16.5c0,5.8-4,10.8-6.8,12.7c-1,0.7-1.2,1.2-0.7,2.2l6.1,14.5c0.9,2.2,3.2,1.7,3.2,3.8c0,1.2-1.2,1.2-2.5,1.2
			h-6.9c-2.9,0-3.6-0.3-3.6-1.2c0-2,2.9-1.4,1.6-4.5l-5.2-12.3c-0.4-1.2-1-1.4-2.9-1.4h-13.6c-0.7,0-1.9-0.1-1.9,2.6v11.1
			c0,3.2,2.6,2.7,2.6,4.5c0,0.7-0.7,1.2-2.5,1.2H309C308.4,72.7,307.1,72.7,307.1,71.7z M334,46.2c4.8,0,8.7-3.2,8.7-7.7
			c0-5.2-2.7-8.8-9.7-8.8h-12.9c-1.4,0-2.2,0.4-2.2,2.2v12.6c0,1.3,1.2,1.7,2.5,1.7H334z"/>
		<path class="st1" d="M367.4,71.7c0-1.2,2.3-1.2,2.3-3.6V56.6c0-1.2,0-1.7-0.4-2.3l-16-27.5c-1.7-2.9-3.3-1.6-3.3-3.6
			c0-1.2,1.3-1.2,2.7-1.2h9.1c1.2,0,1.9,0,1.9,1.2c0,1.9-2.9,0.7-1.2,3.6l11,18.7c0.4,0.7,0.9,0.6,1.2,0l11.3-18.7
			c1.4-2.3-1-1.9-1-3.5c0-0.9,0.9-1.2,1.9-1.2h9.7c0.9,0,2.3,0,2.3,1.2c0,2.2-2,0.7-4.2,4.5L379,54.5c-0.6,1-0.7,1.7-0.7,2.3v11.4
			c0,2.6,2.3,2.2,2.3,3.6c0,1.2-0.9,1.2-2.2,1.2h-9.1C368.7,72.7,367.4,72.7,367.4,71.7z"/>
	</g>
</g>
</svg>
